# xmcd
#
# Track frame offsets:
#	150
#	14641
#	26015
#	54263
#	72125
#	88054
#	111996
#	123842
#	143672
#	155745
#	172651
#	200848
#	218198
#	232608
#	249949
#	272796
#	288008
#	301915
#	318290
#
# Disc length: 4441
#
# Revision: 1
# Processed by: cddbd v1.5.1PL0 Copyright (c) Steve Scherf et al.
# Submitted via: ExactAudioCopy v0.95a3
# Normalized: r0:TDELIM( - )
#
DISCID=00115713
DTITLE=Various Artist - Factory
DYEAR=2003
DGENRE=Pop
TTITLE0=die Prinzen - Chronisch Pleite
TTITLE1=Drafi Deutscher - Nimm mich so wie ich bin
TTITLE2=Erasure - Send Me An Angel
TTITLE3=Erasure - Gimme Gimme Gimme
TTITLE4=Erasure - Sometimes
TTITLE5=Erasure - SOS (ABBA Remix)
TTITLE6=Frank Schöbel - Die Fans sind eine Macht
TTITLE7=Frank Schöbel - Ich brauch dich so
TTITLE8=Frank Schöbel - Komm, wir malen eine Sonne
TTITLE9=Frank Schöbel - Mit mir könnses ja machen
TTITLE10=Frank Schöbel - Wie ein Stern
TTITLE11=Lohen and Lomax - Perfect Harmony
TTITLE12=Nino De Angelo - Flieger
TTITLE13=Nino De Angelo and Chris Norman - Ich mach meine Augen zu
TTITLE14=Nino De Angelo - Engel Der Nacht
TTITLE15=Smokie - Baby I Miss You (Chris Norman)
TTITLE16=Truck Stop - Augen zu und durch
TTITLE17=Anaconda - I Need A Hero
TTITLE18=DMP presents Michael Holm - tränen lügen nicht
EXTD=
EXTT0=
EXTT1=
EXTT2=
EXTT3=
EXTT4=
EXTT5=
EXTT6=
EXTT7=
EXTT8=
EXTT9=
EXTT10=
EXTT11=
EXTT12=
EXTT13=
EXTT14=
EXTT15=
EXTT16=
EXTT17=
EXTT18=
PLAYORDER=
